<svg xmlns="http://www.w3.org/2000/svg" style="display:none">

  <!-- MENU -->

  <symbol id="icon-menu" viewBox="0 0 24 24">
    <path
      d="M3 6H21M3 12H21M3 18H21"
      stroke="currentColor"
      stroke-width="2"
      stroke-linecap="round"
    />
  </symbol>

  <!-- CLOSE -->

  <symbol id="icon-close" viewBox="0 0 24 24">
    <path
      d="M6 6L18 18"
      stroke="currentColor"
      stroke-width="2"
      stroke-linecap="round"
    />
    <path
      d="M18 6L6 18"
      stroke="currentColor"
      stroke-width="2"
      stroke-linecap="round"
    />
  </symbol>

  <!-- PHONE -->

  <symbol id="icon-phone" viewBox="0 0 24 24">
    <path
      fill="currentColor"
      d="M6.6 10.8C8.4 14.4 11.3 17.2 14.9 19L17.7 16.2C18 15.9 18.4 15.8 18.8 15.9C20 16.3 21.3 16.5 22.6 16.5C23.1 16.5 23.5 16.9 23.5 17.4V22C23.5 22.5 23.1 23 22.5 23C10.1 23 1 13.9 1 1.5C1 0.9 1.5 0.5 2 0.5H6.6C7.1 0.5 7.5 0.9 7.5 1.4C7.5 2.7 7.7 4 8.1 5.2C8.2 5.6 8.1 6 7.8 6.3L5 9.1C5.4 9.7 5.9 10.3 6.6 10.8Z"
    />
  </symbol>

  <!-- LOCATION -->

  <symbol id="icon-location" viewBox="0 0 24 24">
    <path
      fill="currentColor"
      d="M12 2C8.1 2 5 5.1 5 9C5 14.2 12 22 12 22C12 22 19 14.2 19 9C19 5.1 15.9 2 12 2ZM12 12C10.3 12 9 10.7 9 9C9 7.3 10.3 6 12 6C13.7 6 15 7.3 15 9C15 10.7 13.7 12 12 12Z"
    />
  </symbol>

  <!-- FACEBOOK -->

  <symbol id="icon-facebook" viewBox="0 0 24 24">
    <path
      fill="currentColor"
      d="M22 12C22 6.5 17.5 2 12 2S2 6.5 2 12C2 17 5.7 21.1 10.4 21.9V14.9H7.9V12H10.4V9.8C10.4 7.3 11.9 5.9 14.2 5.9C15.3 5.9 16.4 6.1 16.4 6.1V8.5H15.2C14 8.5 13.6 9.2 13.6 10V12H16.3L15.9 14.9H13.6V21.9C18.3 21.1 22 17 22 12Z"
    />
  </symbol>

  <!-- INSTAGRAM -->

  <symbol id="icon-instagram" viewBox="0 0 24 24">
    <path
      fill="currentColor"
      d="M12 7.8C9.7 7.8 7.8 9.7 7.8 12C7.8 14.3 9.7 16.2 12 16.2C14.3 16.2 16.2 14.3 16.2 12C16.2 9.7 14.3 7.8 12 7.8ZM12 14.7C10.5 14.7 9.3 13.5 9.3 12C9.3 10.5 10.5 9.3 12 9.3C13.5 9.3 14.7 10.5 14.7 12C14.7 13.5 13.5 14.7 12 14.7Z"
    />
    <path
      fill="currentColor"
      d="M18.4 3H5.6C4.1 3 3 4.1 3 5.6V18.4C3 19.9 4.1 21 5.6 21H18.4C19.9 21 21 19.9 21 18.4V5.6C21 4.1 19.9 3 18.4 3ZM19.2 18.4C19.2 18.9 18.9 19.2 18.4 19.2H5.6C5.1 19.2 4.8 18.9 4.8 18.4V5.6C4.8 5.1 5.1 4.8 5.6 4.8H18.4C18.9 4.8 19.2 5.1 19.2 5.6V18.4Z"
    />
    <circle cx="17.5" cy="6.5" r="1.2" fill="currentColor"/>
  </symbol>

  <!-- X (TWITTER) -->

  <symbol id="icon-x" viewBox="0 0 24 24">
    <path
      fill="currentColor"
      d="M18.9 2H22L15.1 9.9L23 22H16.8L11.9 14.9L5.8 22H2.7L10.1 13.5L2.5 2H8.9L13.3 8.4L18.9 2Z"
    />
  </symbol>

</svg>
